<?xml version="1.0" encoding="UTF-8"?> <!-- Generator: Adobe Illustrator 25.3.1, SVG Export Plug-In . SVG Version: 6.00 Build 0) --> <svg xmlns="http://www.w3.org/2000/svg" xmlns:xlink="http://www.w3.org/1999/xlink" version="1.1" id="Layer_1" x="0px" y="0px" viewBox="0 0 246 38" style="enable-background:new 0 0 246 38;" xml:space="preserve"> <style type="text/css"> .st0{fill:#F36321;} .st1{fill:#FFFFFF;} .st2{fill:url(#SVGID_1_);} .st3{fill:#333333;} </style> <g> <path class="st0" d="M41.2,29.5l-7.1-12.5l6.4-11.5h13.9L41.2,29.5z M20.7,29.5L7.5,5.6h13.9l6.4,11.5L20.7,29.5z M61.5,1.4 C61,0.5,60.1,0,59.1,0H38.9c-1,0-1.9,0.5-2.4,1.4l-5.5,10l-5.5-10C24.9,0.5,24,0,23,0H2.8c-1,0-1.9,0.5-2.4,1.4 c-0.5,0.8-0.5,1.9,0,2.8l17.9,32.4c0.5,0.9,1.4,1.4,2.4,1.4h0c1,0,1.9-0.5,2.4-1.4l7.9-13.9l7.9,13.9c0.5,0.9,1.4,1.4,2.4,1.4h0 c1,0,1.9-0.6,2.4-1.4L61.5,4.1C62,3.3,62,2.2,61.5,1.4z"></path> <g> <path class="st1" d="M31.9,16.3l-1.6-2.9c-0.2-0.4-0.1-0.9,0.3-1.1c0.4-0.2,0.9-0.1,1.1,0.3l1.6,2.9c0.2,0.4,0.1,0.9-0.3,1.1 C32.6,16.8,32.1,16.7,31.9,16.3z"></path> </g> <g> <path class="st1" d="M30.1,21.1l-1.6-2.9c-0.2-0.4-0.1-0.9,0.3-1.1c0.4-0.2,0.9-0.1,1.1,0.3l1.6,2.9c0.2,0.4,0.1,0.9-0.3,1.1 C30.8,21.6,30.3,21.5,30.1,21.1z"></path> </g> <linearGradient id="SVGID_1_" gradientUnits="userSpaceOnUse" x1="22.4325" y1="33.2248" x2="37.3371" y2="14.2321" gradientTransform="matrix(1 0 0 -1 0 40)"> <stop offset="0" style="stop-color:#F36222"></stop> <stop offset="0.4382" style="stop-color:#F9A81B"></stop> <stop offset="1" style="stop-color:#F36222"></stop> </linearGradient> <path class="st2" d="M25.4,1.5l-4.1,4.1l17.4,31l2.4-7.1L25.4,1.5z"></path> <path class="st0" d="M50,33.2c0.2-0.4,0.5-0.7,0.8-0.9c0.4-0.2,0.7-0.3,1.2-0.3c0.4,0,0.8,0.1,1.3,0.3c0.4,0.2,0.8,0.5,1,0.9 c0.2,0.4,0.3,0.7,0.3,1.2c0,0.4-0.1,0.8-0.3,1.2c-0.3,0.6-0.7,0.9-1.3,1l0.5,0.3L52.9,38l-5.7-3.1l0.7-1.2l2,1.1 C49.7,34.2,49.8,33.7,50,33.2z M53.2,35.2c0.2-0.3,0.2-0.6,0.1-0.9c-0.1-0.3-0.3-0.6-0.7-0.8c-0.3-0.2-0.7-0.2-1-0.2 c-0.3,0.1-0.6,0.3-0.7,0.6c-0.2,0.3-0.2,0.6-0.1,0.9c0.1,0.3,0.3,0.6,0.7,0.8c0.3,0.2,0.7,0.2,1,0.2C52.8,35.7,53,35.5,53.2,35.2z M56,27.4c0,0,0.1,0.1,0.3,0.2l-1.7,3.1c0.3,0.1,0.6,0.1,0.8-0.1c0.3-0.1,0.5-0.4,0.7-0.7c0.1-0.2,0.2-0.4,0.2-0.6 c0-0.2,0-0.4-0.1-0.6l1-0.3c0.2,0.6,0.1,1.3-0.3,2.1c-0.3,0.5-0.6,0.8-1,1.1c-0.4,0.3-0.8,0.4-1.2,0.4c-0.4,0-0.9-0.1-1.3-0.3 c-0.4-0.2-0.7-0.5-0.9-0.9c-0.2-0.4-0.3-0.8-0.3-1.2c0-0.4,0.1-0.9,0.3-1.3c0.2-0.4,0.5-0.7,0.9-1c0.4-0.2,0.7-0.4,1.2-0.4 C55.1,27.1,55.6,27.2,56,27.4z M53.6,28.9c-0.1,0.3-0.2,0.5-0.1,0.8c0.1,0.3,0.2,0.5,0.4,0.7l1.1-2c-0.3-0.1-0.6-0.1-0.8,0 C53.9,28.4,53.7,28.6,53.6,28.9z M59.8,25c0,0.2,0,0.3,0,0.6c-0.1,0.2-0.1,0.4-0.2,0.6c-0.3,0.5-0.6,0.8-1,0.9 c-0.4,0.1-0.8,0.1-1.3-0.2l-1.7-0.9l-0.4,0.6L54.2,26l0.4-0.6l-1-0.6l0.7-1.2l1,0.6l0.6-1l0.9,0.5l-0.6,1l1.7,0.9 c0.2,0.1,0.3,0.1,0.5,0.1c0.1,0,0.3-0.1,0.4-0.3c0.1-0.2,0.1-0.4,0.1-0.6L59.8,25z M57.1,20.4c0.4-0.6,0.8-1.1,1.3-1.2 c0.5-0.2,1-0.1,1.7,0.2l2.4,1.3l-0.6,1.1l-0.5-0.3c0.3,0.4,0.2,1-0.1,1.6c-0.2,0.3-0.4,0.6-0.6,0.7c-0.2,0.2-0.5,0.3-0.7,0.3 c-0.3,0-0.5,0-0.8-0.2c-0.4-0.2-0.6-0.5-0.7-0.9c-0.1-0.4,0.1-0.9,0.4-1.5l0.5-1c-0.3-0.1-0.5-0.2-0.7-0.1 c-0.2,0.1-0.4,0.3-0.6,0.6c-0.1,0.2-0.2,0.5-0.3,0.7c0,0.2-0.1,0.5,0,0.7l-1.1,0c0-0.3,0-0.7,0.1-1C56.7,21.1,56.9,20.7,57.1,20.4z M60.5,22.4c0.1-0.2,0.2-0.4,0.2-0.6c0-0.2-0.1-0.4-0.2-0.6L60,21l-0.5,0.8c-0.3,0.5-0.2,0.8,0.1,1c0.2,0.1,0.3,0.1,0.5,0 C60.2,22.8,60.4,22.6,60.5,22.4z"></path> </g> <desc>Created with Sketch.</desc> <path class="st3" d="M100,12.4l-6.5,20h-5l-4.4-13.6l-4.5,13.6h-4.9l-6.6-20h4.8l4.5,14.1l4.7-14.1h4.3l4.6,14.2l4.7-14.2H100z M116.2,24.8c0,0.1,0,0.5-0.1,1.2h-11.6c0.2,1,0.7,1.7,1.5,2.3c0.8,0.6,1.8,0.8,2.9,0.8c0.8,0,1.5-0.1,2.1-0.3 c0.6-0.2,1.2-0.6,1.7-1.1l2.4,2.6c-1.4,1.7-3.6,2.5-6.3,2.5c-1.7,0-3.3-0.3-4.6-1c-1.3-0.7-2.4-1.6-3.1-2.8 c-0.7-1.2-1.1-2.6-1.1-4.1c0-1.5,0.4-2.9,1.1-4.1c0.7-1.2,1.7-2.2,2.9-2.8c1.3-0.7,2.7-1,4.2-1c1.5,0,2.9,0.3,4.1,1 c1.2,0.6,2.2,1.6,2.9,2.8C115.9,21.8,116.2,23.2,116.2,24.8z M108.2,20.2c-1,0-1.9,0.3-2.5,0.9c-0.7,0.6-1.1,1.4-1.3,2.3h7.6 c-0.2-1-0.6-1.7-1.3-2.3C110.1,20.5,109.2,20.2,108.2,20.2z M126.1,32.8c-1.6,0-3.1-0.2-4.6-0.6c-1.5-0.4-2.7-1-3.5-1.7l1.6-3.5 c0.9,0.6,1.9,1.1,3.1,1.5c1.2,0.4,2.4,0.6,3.5,0.6c1.3,0,2.3-0.2,2.9-0.6c0.6-0.4,0.9-0.9,0.9-1.6c0-0.5-0.2-0.9-0.6-1.2 c-0.4-0.3-0.8-0.6-1.4-0.8c-0.6-0.2-1.4-0.4-2.3-0.6c-1.5-0.4-2.8-0.7-3.7-1.1c-1-0.4-1.8-0.9-2.5-1.7c-0.7-0.8-1-1.9-1-3.2 c0-1.2,0.3-2.2,0.9-3.1c0.6-1,1.6-1.7,2.8-2.3c1.3-0.6,2.8-0.8,4.7-0.8c1.3,0,2.5,0.2,3.7,0.5c1.2,0.3,2.3,0.7,3.2,1.3l-1.4,3.5 c-1.8-1-3.7-1.6-5.5-1.6c-1.3,0-2.3,0.2-2.9,0.6c-0.6,0.4-0.9,1-0.9,1.7c0,0.7,0.4,1.2,1.1,1.5c0.7,0.3,1.8,0.6,3.3,1 c1.5,0.4,2.8,0.7,3.7,1.1c1,0.4,1.8,0.9,2.5,1.7c0.7,0.8,1.1,1.8,1.1,3.2c0,1.1-0.3,2.2-1,3.1c-0.6,0.9-1.6,1.7-2.9,2.2 C129.5,32.5,127.9,32.8,126.1,32.8z M161.8,17.1l-5.6,15.4H152l-3.5-9.6l-3.6,9.6h-4.3l-5.5-15.4h4.2l3.6,10.4l3.8-10.4h3.8 l3.7,10.4l3.7-10.4H161.8z M169.6,16.8c2.4,0,4.2,0.6,5.5,1.7c1.3,1.1,1.9,2.8,1.9,5.1v8.8h-4.2v-1.9c-0.8,1.4-2.4,2.1-4.7,2.1 c-1.2,0-2.2-0.2-3.1-0.6c-0.9-0.4-1.5-1-2-1.7c-0.5-0.7-0.7-1.5-0.7-2.4c0-1.4,0.5-2.6,1.6-3.4c1.1-0.8,2.8-1.2,5-1.2h3.5 c0-1-0.3-1.7-0.9-2.2c-0.6-0.5-1.5-0.8-2.7-0.8c-0.8,0-1.6,0.1-2.4,0.4c-0.8,0.2-1.4,0.6-2,1l-1.6-3.1c0.8-0.6,1.8-1,3-1.4 C167.2,17,168.4,16.8,169.6,16.8z M169.3,29.7c0.8,0,1.4-0.2,2-0.5c0.6-0.4,1-0.9,1.3-1.6V26h-3.1c-1.8,0-2.7,0.6-2.7,1.8 c0,0.6,0.2,1,0.7,1.4C167.9,29.5,168.5,29.7,169.3,29.7z M190.2,16.8c1.4,0,2.7,0.3,3.9,1c1.2,0.6,2.1,1.6,2.8,2.8 c0.7,1.2,1,2.6,1,4.1c0,1.6-0.3,3-1,4.2c-0.7,1.2-1.6,2.1-2.8,2.8c-1.2,0.6-2.5,1-3.9,1c-2,0-3.5-0.6-4.6-1.9V38h-4.5V17.1h4.3v1.8 C186.4,17.5,188,16.8,190.2,16.8z M189.4,29c1.1,0,2.1-0.4,2.8-1.1c0.7-0.8,1.1-1.8,1.1-3.1c0-1.3-0.4-2.3-1.1-3.1 c-0.7-0.8-1.7-1.2-2.8-1.2c-1.1,0-2.1,0.4-2.8,1.2c-0.7,0.8-1.1,1.8-1.1,3.1c0,1.3,0.4,2.3,1.1,3.1C187.3,28.6,188.2,29,189.4,29z M221.4,30.6v1.8h-14V31l8.3-8.2c1-1,1.8-1.9,2.1-2.7c0.4-0.8,0.6-1.5,0.6-2.3c0-1.2-0.4-2.1-1.2-2.7c-0.8-0.7-2-1-3.5-1 c-2.3,0-4.2,0.7-5.5,2.2l-1.5-1.3c0.8-0.9,1.8-1.6,3-2.1c1.2-0.5,2.6-0.7,4.1-0.7c2,0,3.7,0.5,4.8,1.5c1.2,1,1.8,2.3,1.8,3.9 c0,1-0.2,2-0.7,3c-0.5,1-1.3,2-2.6,3.3l-6.8,6.7H221.4z M225.8,32.6c-0.4,0-0.8-0.2-1.1-0.5c-0.3-0.3-0.4-0.7-0.4-1.1 c0-0.4,0.1-0.8,0.4-1.1c0.3-0.3,0.7-0.5,1.1-0.5c0.4,0,0.8,0.2,1.1,0.5c0.3,0.3,0.5,0.6,0.5,1.1c0,0.4-0.2,0.8-0.5,1.1 C226.6,32.4,226.2,32.6,225.8,32.6z M238,32.6c-1.5,0-2.9-0.4-4.1-1.2c-1.2-0.8-2.1-2-2.8-3.5c-0.7-1.5-1-3.4-1-5.4 c0-2.1,0.3-3.9,1-5.4c0.7-1.5,1.6-2.7,2.8-3.5c1.2-0.8,2.6-1.2,4.1-1.2s2.9,0.4,4.1,1.2c1.2,0.8,2.2,2,2.9,3.5c0.7,1.5,1,3.3,1,5.4 c0,2.1-0.3,3.9-1,5.4c-0.7,1.5-1.6,2.7-2.9,3.5C240.9,32.2,239.5,32.6,238,32.6z M238,30.7c1.2,0,2.2-0.3,3.1-1 c0.9-0.6,1.6-1.6,2.1-2.8c0.5-1.2,0.7-2.7,0.7-4.5c0-1.8-0.2-3.3-0.7-4.5c-0.5-1.2-1.2-2.2-2.1-2.8c-0.9-0.6-1.9-1-3.1-1 s-2.2,0.3-3.1,1c-0.9,0.6-1.6,1.6-2.1,2.8c-0.5,1.2-0.7,2.7-0.7,4.5c0,1.8,0.2,3.3,0.7,4.5c0.5,1.2,1.2,2.2,2.1,2.8 C235.8,30.4,236.8,30.7,238,30.7z"></path> </svg> 